<svg xmlns="http://www.w3.org/2000/svg" viewBox="0 0 100 120">
  <!-- Top hook -->
  <path d="M45 5 Q50 0 55 5 L55 15 L45 15 Z" fill="#FFD700"/>
  <rect x="47" y="15" width="6" height="8" fill="#FFD700"/>
  
  <!-- Top cap -->
  <ellipse cx="50" cy="25" rx="20" ry="6" fill="#B8860B"/>
  <ellipse cx="50" cy="23" rx="18" ry="5" fill="#FFD700"/>
  
  <!-- Main lantern body -->
  <ellipse cx="50" cy="55" rx="30" ry="35" fill="#DC143C"/>
  <ellipse cx="50" cy="55" rx="28" ry="33" fill="#FF2D2D"/>
  
  <!-- Lantern ribs -->
  <path d="M50 20 Q50 55 50 90" stroke="#B8860B" stroke-width="1.5" fill="none"/>
  <path d="M25 40 Q50 60 75 40" stroke="#B8860B" stroke-width="1" fill="none"/>
  <path d="M20 55 Q50 75 80 55" stroke="#B8860B" stroke-width="1" fill="none"/>
  <path d="M25 70 Q50 90 75 70" stroke="#B8860B" stroke-width="1" fill="none"/>
  
  <!-- Highlight -->
  <ellipse cx="38" cy="45" rx="8" ry="12" fill="#FF6B6B" opacity="0.5"/>
  
  <!-- Bottom cap -->
  <ellipse cx="50" cy="88" rx="18" ry="5" fill="#B8860B"/>
  <ellipse cx="50" cy="86" rx="16" ry="4" fill="#FFD700"/>
  
  <!-- Tassels -->
  <rect x="48" y="90" width="4" height="8" fill="#FFD700"/>
  <path d="M46 98 Q50 105 50 115" stroke="#DC143C" stroke-width="3" fill="none"/>
  <path d="M50 98 Q50 108 50 118" stroke="#DC143C" stroke-width="3" fill="none"/>
  <path d="M54 98 Q50 105 50 115" stroke="#DC143C" stroke-width="3" fill="none"/>
  <circle cx="50" cy="118" r="3" fill="#FFD700"/>
</svg>
